<svg width="112" height="47" viewBox="0 0 112 47" fill="none" xmlns="http://www.w3.org/2000/svg">
<path d="M2.83333 31.3457L1 36V46.5H111V1L109.167 1.3182C107.333 1.6364 103.667 2.2728 100 6.45244C96.3333 10.6321 92.6667 18.355 89 21.9498C85.3333 25.5446 81.6667 25.0114 78 21.8323C74.3333 18.6532 70.6667 12.8283 67 10.0754C63.3333 7.32251 59.6667 7.64169 56 9.13074C52.3333 10.6198 48.6667 13.2787 45 14.689C41.3333 16.0993 37.6667 16.2609 34 15.4767C30.3333 14.6925 26.6667 12.9625 23 11.5711C19.3333 10.1797 15.6667 9.12702 12 13.2549C8.33333 17.3829 4.66667 26.6914 2.83333 31.3457Z" fill="url(#paint0_linear_1_167)"/>
<path d="M1 36L2.83333 31.3457C4.66667 26.6914 8.33333 17.3829 12 13.2549C15.6667 9.12702 19.3333 10.1797 23 11.5711C26.6667 12.9625 30.3333 14.6925 34 15.4767C37.6667 16.2609 41.3333 16.0993 45 14.689C48.6667 13.2787 52.3333 10.6198 56 9.13074C59.6667 7.64169 63.3333 7.32251 67 10.0754C70.6667 12.8283 74.3333 18.6532 78 21.8323C81.6667 25.0114 85.3333 25.5446 89 21.9498C92.6667 18.355 96.3333 10.6321 100 6.45244C103.667 2.2728 107.333 1.6364 109.167 1.3182L111 1" stroke="#28C165"/>
<defs>
<linearGradient id="paint0_linear_1_167" x1="56" y1="-7" x2="56" y2="41.5" gradientUnits="userSpaceOnUse">
<stop stop-color="#5FDF92"/>
<stop offset="0.0001" stop-color="#28C165" stop-opacity="0.8"/>
<stop offset="1" stop-color="#5FDF92" stop-opacity="0"/>
</linearGradient>
</defs>
</svg>
