<svg width="115" height="45" viewBox="0 0 115 45" fill="none" xmlns="http://www.w3.org/2000/svg">
<path d="M3.69048 14.1331L1 16.7728V45H114V7.31494L111.31 8.78257C108.619 10.2502 103.238 13.1855 97.8571 16.9061C92.4762 20.6267 87.0952 25.1327 81.7143 21.8813C76.3333 18.6299 70.9524 7.62118 65.5714 3.32524C60.1905 -0.970708 54.8095 1.44617 49.4286 4.47297C44.0476 7.49976 38.6667 11.1365 33.2857 10.6483C27.9048 10.1602 22.5238 5.54726 17.1429 5.88053C11.7619 6.21381 6.38095 11.4933 3.69048 14.1331Z" fill="url(#paint0_linear_1_173)"/>
<path d="M1 16.7728L3.69048 14.1331C6.38095 11.4933 11.7619 6.21381 17.1429 5.88053C22.5238 5.54726 27.9048 10.1602 33.2857 10.6483C38.6667 11.1365 44.0476 7.49976 49.4286 4.47297C54.8095 1.44617 60.1905 -0.970708 65.5714 3.32524C70.9524 7.62118 76.3333 18.6299 81.7143 21.8813C87.0952 25.1327 92.4762 20.6267 97.8571 16.9061C103.238 13.1855 108.619 10.2502 111.31 8.78257L114 7.31494" stroke="#F4574D"/>
<defs>
<linearGradient id="paint0_linear_1_173" x1="57.5" y1="-7" x2="57.5" y2="41.5" gradientUnits="userSpaceOnUse">
<stop stop-color="#FFBDBD"/>
<stop offset="1" stop-color="#FFBDBD" stop-opacity="0"/>
</linearGradient>
</defs>
</svg>
