<svg width="119" height="35" viewBox="0 0 119 35" fill="none" xmlns="http://www.w3.org/2000/svg">
<path d="M3.4375 4.73199L1 1V34.5H118V10.8396L115.562 8.68339C113.125 6.52716 108.25 2.2147 103.375 2.32254C98.5054 2.43026 93.6359 6.94844 88.7663 11.4666L88.75 11.4817C83.875 16.0049 79 20.5232 74.125 19.9508C69.25 19.3783 64.375 13.7151 59.5 13.6309C54.625 13.5466 49.75 19.0414 44.875 16.4161C40 13.7908 35.125 3.04551 30.25 2.85482C25.375 2.66413 20.5 13.028 15.625 14.478C10.75 15.928 5.875 8.46399 3.4375 4.73199L3.4375 4.73199Z" fill="url(#paint0_linear_1_170)"/>
<path d="M1 1L3.4375 4.73199C5.875 8.46398 10.75 15.928 15.625 14.478C20.5 13.028 25.375 2.66413 30.25 2.85482C35.125 3.04551 40 13.7908 44.875 16.4161C49.75 19.0414 54.625 13.5466 59.5 13.6309C64.375 13.7151 69.25 19.3783 74.125 19.9508C79 20.5232 83.875 16.0049 88.75 11.4817C93.625 6.95852 98.5 2.43038 103.375 2.32254C108.25 2.2147 113.125 6.52716 115.562 8.68339L118 10.8396" stroke="#28C165"/>
<defs>
<linearGradient id="paint0_linear_1_170" x1="59.5" y1="-3" x2="59.5" y2="32" gradientUnits="userSpaceOnUse">
<stop stop-color="#5FDF92" stop-opacity="0.8"/>
<stop offset="1" stop-color="#5FDF92" stop-opacity="0"/>
</linearGradient>
</defs>
</svg>
