<svg width="115" height="41" viewBox="0 0 115 41" fill="none" xmlns="http://www.w3.org/2000/svg">
<path d="M4.13889 20.9635L1 26V40.5H114V13.4219L110.861 9.8969C107.722 6.37185 101.444 -0.67823 95.1667 1.36458C88.8889 3.40739 82.6111 14.5431 76.3333 15.8148C70.0556 17.0866 63.7778 8.49433 57.5 7.67652C51.2222 6.85871 44.9444 13.8153 38.6667 13.1284C32.3889 12.4415 26.1111 4.11112 19.8333 4.98247C13.5556 5.85381 7.27778 15.9269 4.13889 20.9635Z" fill="url(#paint0_linear_1_176)"/>
<path d="M1 26L4.13889 20.9635C7.27778 15.9269 13.5556 5.85381 19.8333 4.98247C26.1111 4.11112 32.3889 12.4415 38.6667 13.1284C44.9444 13.8153 51.2222 6.85871 57.5 7.67652C63.7778 8.49433 70.0556 17.0866 76.3333 15.8148C82.6111 14.5431 88.8889 3.40739 95.1667 1.36458C101.444 -0.67823 107.722 6.37185 110.861 9.8969L114 13.4219" stroke="#F4574D"/>
<defs>
<linearGradient id="paint0_linear_1_176" x1="57.5" y1="-0.5" x2="57.5" y2="37.5" gradientUnits="userSpaceOnUse">
<stop stop-color="#FFBDBD"/>
<stop offset="1" stop-color="#FFBDBD" stop-opacity="0"/>
</linearGradient>
</defs>
</svg>
